# xmcd CD database file
#
# Track frame offsets:
#	150
#	10166
#	27305
#	37735
#	48118
#	54317
#	65529
#	77467
#	92208
#	111064
#	124196
#	136083
#	152696
#	168245
#
# Disc length: 2411 seconds
#
# Revision: 0
# Processed by: cddbd v1.4PL0 Copyright (c) Steve Scherf et al.
# Submitted via: CDex 1.40Release
#
DISCID=9f09690e
DTITLE=Strange Creek Singers - Get Aquainted Waltz
DYEAR=1969
DGENRE=Country
TTITLE0=When I Can Read My Titles Clear
TTITLE1=In The Pines
TTITLE2=Sunny Side Of Life
TTITLE3=Poor Old Dirt Farmer
TTITLE4=Sally Ann
TTITLE5=I Truly Understand That You Love Another Man
TTITLE6=Old Black Choo Choo
TTITLE7=Today Has Been A Lonesome Day
TTITLE8=No Never No
TTITLE9=New River Train
TTITLE10=Get Acquainted Waltz
TTITLE11=Will The Circle Be Unbroken
TTITLE12=Black Lung
TTITLE13=Difficult Run Part 2
EXTD=YEAR: 1969 ID3G: 2
EXTT0=
EXTT1=
EXTT2=
EXTT3=
EXTT4=
EXTT5=
EXTT6=
EXTT7=
EXTT8=
EXTT9=
EXTT10=
EXTT11=
EXTT12=
EXTT13=
PLAYORDER=
